<?xml version="1.0" encoding="UTF-8" standalone="no"?>
<svg
   xmlns:dc="http://purl.org/dc/elements/1.1/"
   xmlns:cc="http://creativecommons.org/ns#"
   xmlns:rdf="http://www.w3.org/1999/02/22-rdf-syntax-ns#"
   xmlns:svg="http://www.w3.org/2000/svg"
   xmlns="http://www.w3.org/2000/svg"
   xmlns:sodipodi="http://sodipodi.sourceforge.net/DTD/sodipodi-0.dtd"
   xmlns:inkscape="http://www.inkscape.org/namespaces/inkscape"
   inkscape:version="1.0beta2 (2b71d25, 2019-12-03)"
   sodipodi:docname="logo.png.svg"
   viewBox="0 0 163.84 163.84"
   height="163.84"
   width="163.84"
   id="svg84"
   version="1.1">
  <metadata
     id="metadata90">
    <rdf:RDF>
      <cc:Work
         rdf:about="">
        <dc:format>image/svg+xml</dc:format>
        <dc:type
           rdf:resource="http://purl.org/dc/dcmitype/StillImage" />
      </cc:Work>
    </rdf:RDF>
  </metadata>
  <defs
     id="defs88" />
  <sodipodi:namedview
     inkscape:current-layer="g92"
     inkscape:window-maximized="1"
     inkscape:window-y="0"
     inkscape:window-x="0"
     inkscape:cy="75.342952"
     inkscape:cx="81.029736"
     inkscape:zoom="2.923584"
     showgrid="false"
     id="namedview86"
     inkscape:window-height="685"
     inkscape:window-width="1366"
     inkscape:pageshadow="2"
     inkscape:pageopacity="0"
     guidetolerance="10"
     gridtolerance="10"
     objecttolerance="10"
     borderopacity="1"
     inkscape:document-rotation="0"
     bordercolor="#666666"
     pagecolor="#ffffff" />
  <g
     id="g92"
     inkscape:label="Image"
     inkscape:groupmode="layer">
    <path
       d="M 158,82 A 76,76 0 0 1 82,158 76,76 0 0 1 6,82 76,76 0 0 1 82,6 76,76 0 0 1 158,82 Z"
       style="opacity:1;fill:#000000;fill-opacity:0;fill-rule:evenodd;stroke:#000000;stroke-width:7.89437967;stroke-linecap:butt;stroke-linejoin:miter;stroke-miterlimit:4;stroke-dasharray:none;stroke-opacity:1;paint-order:normal"
       id="path107" />
    <path
       inkscape:connector-curvature="0"
       d="m 33.128218,129.61589 c -1.791969,-5.98235 1.894414,-11.68915 3.973208,-17.09089 3.892811,-7.72038 7.94657,-16.431438 15.990013,-20.596564 6.255055,-2.584032 13.883495,-1.277323 18.822637,3.399354 4.424068,3.486742 6.61065,8.95137 10.620796,12.77229 4.547883,0.58711 7.422109,-4.77686 9.980529,-7.83954 C 99.726974,89.29421 104.71994,77.067373 110.74114,65.44 c 5.02288,-9.929473 10.16585,-19.865071 16.48947,-29.036664 1.184,-3.065822 5.68159,-2.034742 3.76517,1.622726 -2.47639,15.116443 -6.42691,30.01762 -11.91824,44.328264 -4.63203,11.482588 -9.98433,22.891704 -17.64829,32.690444 -4.159592,5.15751 -10.225834,9.90426 -17.257109,8.98569 -6.895549,0.1295 -12.42752,-4.91023 -15.731955,-10.52584 -2.95096,-3.31455 -5.818004,-11.36327 -11.320186,-8.68208 -8.459904,6.02466 -13.421428,15.47404 -18.576179,24.20605 -0.793896,1.67343 -4.439065,2.36155 -5.415603,0.5873 z"
       style="fill:#000000;stroke-width:0.32"
       id="path2989" />
  </g>
</svg>
